<?xml version="1.0" standalone="no"?>
<!DOCTYPE svg PUBLIC "-//W3C//DTD SVG 20010904//EN"
 "http://www.w3.org/TR/2001/REC-SVG-20010904/DTD/svg10.dtd">
<svg version="1.0" xmlns="http://www.w3.org/2000/svg"
 width="512.000000pt" height="512.000000pt" viewBox="0 0 512.000000 512.000000"
 preserveAspectRatio="xMidYMid meet">

<g transform="translate(0.000000,512.000000) scale(0.100000,-0.100000)"
fill="#000000" stroke="none">
<path d="M1795 4695 c-55 -23 -97 -62 -527 -492 -379 -379 -472 -477 -490
-518 l-23 -50 0 -1530 0 -1530 28 -57 c35 -71 88 -120 161 -147 l57 -21 1453
0 c1637 0 1514 -6 1606 77 28 25 57 64 71 95 l24 53 3 805 2 804 -32 -31 c-33
-31 -109 -72 -138 -73 -8 -1 -43 -42 -77 -91 l-63 -90 0 -620 0 -619 -1395 0
-1395 0 0 1395 0 1395 373 0 c405 0 433 3 500 55 20 14 47 50 62 78 l25 51 0
388 0 388 915 0 915 0 0 -260 c0 -143 3 -260 8 -260 4 0 25 26 47 56 78 109
136 154 219 169 l38 8 -4 186 c-3 169 -6 191 -27 239 -14 31 -43 70 -71 95
-91 82 -21 77 -1179 77 l-1026 0 -60 -25z m20 -1022 c-3 -10 -76 -13 -325 -13
-176 0 -320 3 -320 6 0 3 145 149 323 324 l322 317 3 -311 c1 -171 0 -316 -3
-323z"/>
<path d="M4150 3908 c-17 -6 -152 -174 -400 -499 -206 -270 -379 -501 -384
-513 -13 -33 1 -75 29 -88 44 -20 74 5 191 160 62 81 187 245 279 365 l166
217 30 -21 29 -21 -63 -81 c-318 -410 -569 -752 -569 -773 0 -14 9 -35 20 -47
l20 -22 -205 -290 c-307 -436 -381 -549 -444 -678 -70 -145 -128 -340 -110
-370 11 -16 7 -27 -23 -73 -20 -29 -36 -63 -36 -74 0 -21 41 -70 59 -70 29 0
61 24 92 68 28 41 38 50 56 45 56 -13 309 208 455 397 36 47 172 236 302 422
l236 336 29 -11 c21 -8 36 -8 53 0 14 6 99 128 219 314 108 167 276 427 373
577 98 151 181 285 187 299 29 76 -75 209 -223 284 -127 64 -195 59 -253 -21
-20 -28 -40 -50 -43 -50 -4 0 -18 9 -31 19 l-24 18 37 48 c39 52 44 79 21 112
-18 25 -42 32 -75 21z"/>
<path d="M1430 2910 l0 -100 863 0 862 0 1 68 c0 43 6 78 17 100 l18 32 -881
0 -880 0 0 -100z"/>
<path d="M1432 2468 l3 -103 827 -3 826 -2 65 92 c35 51 67 99 71 106 6 9
-176 12 -894 12 l-901 0 3 -102z"/>
<path d="M1437 2123 c-4 -3 -7 -51 -7 -105 l0 -98 678 0 677 0 65 98 c36 53
67 100 68 105 4 9 -1472 10 -1481 0z"/>
<path d="M1692 1550 c-40 -37 -61 -38 -97 -4 -35 33 -80 30 -108 -8 -19 -26
-19 -27 -1 -64 36 -72 116 -102 208 -79 102 26 157 137 87 174 -32 17 -54 12
-89 -19z"/>
<path d="M1570 1285 c-50 -23 -70 -44 -96 -100 -46 -97 -26 -187 41 -187 38 0
62 27 70 80 9 63 21 82 51 82 41 0 64 -17 149 -106 77 -81 82 -84 125 -84 36
0 62 10 125 47 44 25 100 52 124 60 59 17 154 17 221 -2 103 -29 116 -29 139
-6 29 29 27 75 -4 100 -32 24 -184 61 -257 61 -76 0 -161 -24 -245 -70 -40
-22 -79 -40 -87 -40 -9 0 -28 15 -43 32 -49 57 -97 99 -137 120 -52 27 -132
33 -176 13z"/>
</g>
</svg>
