<?xml version="1.0" standalone="no"?>
<!DOCTYPE svg PUBLIC "-//W3C//DTD SVG 20010904//EN"
 "http://www.w3.org/TR/2001/REC-SVG-20010904/DTD/svg10.dtd">
<svg version="1.0" xmlns="http://www.w3.org/2000/svg"
 width="900.000000pt" height="688.000000pt" viewBox="0 0 900.000000 688.000000"
 preserveAspectRatio="xMidYMid meet">

<g transform="translate(0.000000,688.000000) scale(0.100000,-0.100000)"
fill="#000000" stroke="none">
<path d="M6910 6626 c13 -15 64 -54 113 -87 406 -278 693 -678 913 -1268 152
-407 234 -802 265 -1283 16 -243 6 -834 -15 -987 -51 -358 -130 -658 -270
-1030 -26 -67 -46 -130 -44 -140 7 -33 192 257 326 509 166 314 318 759 389
1140 16 84 18 160 18 640 0 603 2 583 -70 828 -215 735 -640 1253 -1280 1562
-133 64 -281 124 -335 135 l-35 7 25 -26z"/>
<path d="M4927 6438 c-49 -13 -148 -104 -198 -181 -41 -63 -70 -136 -118 -292
-37 -123 -68 -164 -242 -325 -289 -269 -543 -471 -911 -728 -491 -342 -867
-539 -1528 -799 -283 -111 -455 -185 -563 -241 -155 -79 -312 -249 -375 -405
-86 -213 -75 -699 22 -985 89 -260 229 -361 501 -362 215 -1 369 -90 490 -284
99 -159 153 -318 254 -741 98 -414 154 -548 276 -671 79 -79 154 -121 282
-156 64 -17 109 -21 248 -22 154 -1 173 1 205 19 53 31 53 73 0 150 -53 80
-56 104 -26 198 15 43 26 88 26 100 0 50 -26 105 -103 219 l-82 121 3 80 c3
99 -19 153 -102 245 -70 79 -89 116 -110 219 -9 45 -34 138 -57 208 -84 264
-90 405 -20 475 24 24 37 28 121 34 109 8 451 -7 674 -30 576 -58 1307 -203
1606 -319 110 -42 244 -110 345 -175 211 -135 313 -163 430 -119 195 73 331
397 392 930 24 214 24 743 -1 989 -86 871 -367 1820 -710 2398 -151 253 -293
399 -433 442 -72 22 -227 26 -296 8z m-413 -1074 c-22 -135 -29 -510 -15 -704
43 -561 176 -1174 376 -1725 62 -170 120 -304 245 -563 56 -117 99 -216 96
-219 -3 -3 -59 14 -123 39 -157 61 -284 101 -488 153 -399 103 -615 133 -1245
170 -396 23 -453 34 -576 104 -112 65 -230 204 -294 345 -82 184 -120 428
-100 651 13 149 46 251 108 341 112 158 278 281 842 624 337 204 652 411 770
507 47 37 159 138 250 224 91 86 166 156 168 154 1 -1 -5 -46 -14 -101z m261
-675 c213 -171 393 -540 476 -974 40 -209 37 -609 -7 -865 -17 -102 -52 -242
-63 -253 -24 -25 -178 442 -266 807 -61 255 -151 774 -195 1127 -21 170 -24
209 -15 209 3 0 34 -23 70 -51z"/>
<path d="M6452 6007 c3 -6 58 -50 123 -97 268 -192 460 -436 621 -790 313
-687 404 -1548 244 -2320 -27 -130 -75 -290 -140 -464 -83 -226 -79 -239 27
-78 276 420 438 847 495 1302 17 139 17 697 0 840 -27 215 -75 374 -177 585
-161 332 -399 608 -680 791 -168 109 -525 270 -513 231z"/>
<path d="M6025 5461 c4 -7 39 -33 78 -58 163 -104 368 -346 474 -558 99 -196
193 -478 243 -725 41 -204 54 -373 46 -630 -15 -466 -46 -651 -161 -955 -31
-81 -55 -155 -53 -164 6 -29 142 188 238 379 350 696 344 1545 -14 2100 -103
158 -260 318 -419 423 -161 107 -464 239 -432 188z"/>
<path d="M935 3661 c-106 -50 -384 -203 -451 -247 -108 -72 -197 -204 -230
-340 -21 -88 -24 -352 -5 -439 18 -85 72 -192 122 -244 127 -131 353 -206 664
-220 83 -4 151 -6 152 -6 2 1 -24 33 -58 71 -173 199 -237 358 -259 642 -25
320 32 616 145 765 19 25 35 48 35 51 0 14 -41 2 -115 -33z m-233 -566 c9
-266 31 -405 92 -587 24 -73 42 -136 40 -140 -12 -19 -54 -7 -73 20 -27 39
-107 275 -126 373 -27 145 -16 470 20 555 15 36 17 37 27 19 7 -11 15 -111 20
-240z m-221 -110 c5 -234 6 -242 37 -335 45 -137 64 -222 51 -235 -14 -14 -31
11 -84 120 -86 179 -90 196 -90 410 0 175 2 194 22 238 16 35 27 48 40 45 16
-3 19 -24 24 -243z"/>
</g>
</svg>
