<?xml version="1.0" standalone="no"?>
<!DOCTYPE svg PUBLIC "-//W3C//DTD SVG 20010904//EN"
 "http://www.w3.org/TR/2001/REC-SVG-20010904/DTD/svg10.dtd">
<svg version="1.0" xmlns="http://www.w3.org/2000/svg"
 width="1000.000000pt" height="800.000000pt" viewBox="0 0 1000.000000 800.000000"
 preserveAspectRatio="xMidYMid meet">

<g transform="translate(0.000000,800.000000) scale(0.100000,-0.100000)"
fill="#000000" stroke="none">
<path d="M1758 6600 c-20 -11 -45 -34 -57 -53 -23 -37 -828 -2168 -844 -2233
-13 -55 -2 -109 31 -144 22 -24 74 -46 271 -115 135 -47 256 -85 269 -85 35 0
94 36 119 73 23 36 842 2204 850 2252 7 43 -12 107 -39 133 -25 23 -502 192
-540 192 -13 -1 -39 -10 -60 -20z"/>
<path d="M7870 6576 c-90 -35 -486 -255 -505 -280 -16 -21 -20 -42 -20 -94 l1
-67 542 -1045 c299 -574 552 -1055 564 -1067 29 -31 101 -57 137 -50 15 3 137
63 270 133 278 146 286 154 285 249 -1 59 -8 74 -534 1090 -293 567 -542 1044
-553 1061 -43 65 -123 95 -187 70z"/>
<path d="M4300 6474 c-139 -28 -281 -85 -465 -188 -181 -102 -301 -161 -392
-193 -65 -22 -96 -27 -184 -27 -102 -1 -107 0 -183 37 -42 21 -91 54 -109 74
-79 87 -97 101 -141 112 -65 16 -129 -1 -175 -48 -29 -29 -47 -68 -90 -186
-86 -238 -446 -1196 -600 -1597 -78 -202 -141 -379 -141 -395 0 -60 23 -106
94 -191 88 -105 254 -289 428 -473 l129 -137 71 70 70 69 -99 102 c-121 126
-300 320 -415 453 l-87 101 95 244 c107 276 510 1346 603 1604 34 93 63 170
65 172 1 1 25 -19 53 -45 55 -52 200 -131 278 -153 30 -8 95 -14 160 -13 176
1 303 45 591 205 311 172 430 215 578 207 60 -3 96 -11 140 -31 l58 -27 85 51
c46 28 82 56 80 62 -6 22 -124 94 -189 117 -62 21 -246 36 -308 24z"/>
<path d="M5430 6386 c-139 -30 -282 -93 -532 -237 -413 -237 -901 -572 -1303
-893 -130 -104 -152 -128 -189 -206 -28 -58 -31 -74 -30 -155 1 -100 14 -142
66 -200 51 -59 100 -79 193 -79 52 0 99 6 135 18 83 29 1069 537 1310 676 109
63 158 68 222 24 62 -43 411 -423 1437 -1564 349 -388 638 -707 643 -708 25
-11 430 372 570 538 82 97 213 286 243 351 l17 36 -259 494 c-277 525 -647
1237 -732 1407 -28 56 -55 102 -60 102 -5 0 -46 -20 -92 -44 -115 -61 -185
-80 -273 -74 -103 8 -183 44 -385 178 -278 184 -454 278 -601 320 -96 28 -286
36 -380 16z"/>
<path d="M5984 3541 c-37 -22 -70 -96 -59 -131 4 -12 89 -113 189 -223 545
-603 524 -576 546 -695 35 -194 -97 -383 -270 -383 -72 -1 -150 31 -201 83
-19 18 -200 219 -403 446 -204 226 -378 414 -387 417 -26 9 -76 -21 -94 -55
-16 -30 -20 -77 -9 -105 4 -9 139 -168 301 -353 162 -185 306 -359 321 -387
24 -45 27 -60 27 -155 0 -101 -1 -108 -34 -168 -43 -79 -99 -128 -170 -149
-53 -15 -101 -12 -162 12 -12 4 -18 -1 -22 -17 -4 -13 -24 -50 -46 -83 -22
-33 -37 -63 -35 -67 8 -12 108 -45 160 -53 115 -15 254 37 348 131 72 72 133
193 149 293 9 58 14 70 27 65 108 -46 156 -56 250 -52 82 3 104 8 162 36 82
40 172 127 215 208 35 67 63 153 63 198 0 53 10 58 70 35 30 -12 89 -23 130
-26 232 -16 443 145 491 376 11 53 9 164 -3 177 -12 11 -177 -120 -184 -146
-14 -51 -44 -99 -89 -138 -105 -92 -249 -96 -362 -9 -23 18 -214 228 -424 467
-209 239 -390 443 -401 453 -26 22 -55 22 -94 -2z"/>
<path d="M2886 3336 c-56 -21 -141 -82 -212 -151 -78 -76 -106 -145 -106 -256
-1 -62 4 -88 26 -135 66 -145 202 -214 334 -170 62 21 221 142 263 199 34 47
69 152 69 207 0 21 -9 67 -20 103 -23 76 -88 156 -154 189 -52 26 -148 33
-200 14z"/>
<path d="M3938 3286 c-21 -7 -48 -20 -61 -29 -43 -28 -532 -476 -564 -517 -37
-47 -73 -152 -73 -215 0 -79 35 -168 91 -229 81 -89 195 -115 301 -69 69 31
588 506 627 575 95 167 35 396 -124 473 -50 24 -148 30 -197 11z"/>
<path d="M4602 2873 c-49 -27 -610 -529 -700 -627 -68 -74 -86 -124 -87 -236
0 -77 4 -104 22 -142 31 -67 95 -132 155 -158 65 -28 161 -24 223 8 45 23 683
602 721 653 87 119 85 306 -5 425 -77 103 -220 136 -329 77z"/>
<path d="M5015 2196 c-67 -31 -366 -339 -409 -422 -42 -78 -48 -201 -15 -288
30 -81 95 -149 165 -176 69 -25 119 -25 188 1 48 17 77 42 207 174 180 182
224 238 245 313 21 73 15 180 -15 247 -65 147 -229 215 -366 151z"/>
</g>
</svg>
